PathFileType	4	(X/Y/Z)	58_2_80_p0_0-119_filt_butterworth.trc
DataRate	CameraRate	NumFrames	NumMarkers	Units	OrigDataRate	OrigDataStartFrame	OrigNumFrames
34.0	34.0	6	27	m	34.0	29	119
Frame#	Time	RHip			RKnee			RAnkle			RBigToe			RSmallToe			RHeel			LHip			LKnee			LAnkle			LBigToe			LSmallToe			LHeel			Neck			Head			Nose			RShoulder			RElbow			RWrist			RThumb			RIndex			RPinky			LShoulder			LElbow			LWrist			LThumb			LIndex			LPinky			
		X1	Y1	Z1	X2	Y2	Z2	X3	Y3	Z3	X4	Y4	Z4	X5	Y5	Z5	X6	Y6	Z6	X7	Y7	Z7	X8	Y8	Z8	X9	Y9	Z9	X10	Y10	Z10	X11	Y11	Z11	X12	Y12	Z12	X13	Y13	Z13	X14	Y14	Z14	X15	Y15	Z15	X16	Y16	Z16	X17	Y17	Z17	X18	Y18	Z18	X19	Y19	Z19	X20	Y20	Z20	X21	Y21	Z21	X22	Y22	Z22	X23	Y23	Z23	X24	Y24	Z24	X25	Y25	Z25	X26	Y26	Z26	X27	Y27	Z27	
29	0.8529411764705882	0.32115695894240937	0.4995996708039927	1.0703559840950232	0.3108056938160797	0.6008392145058516	1.484368623739524	0.3143194444051914	0.7407340502660751	1.9082835430811609	0.28326821225982546	0.5581790577904363	1.9556772547964676	0.34031322408087683	0.5914736544749705	1.9489491659064906	0.2955260185933344	0.842743410791527	1.9887653145076933	0.14912253626709757	0.4905239109348589	1.0723534986980585	0.1420694031708461	0.6425000381262618	1.4842688107062543	0.12582883670188408	0.7382396513819416	1.895604182470013	0.1261653742318272	0.5543584924849969	1.9417618652221353	0.07762384798331357	0.6129319461432354	1.9496808403243344	0.14985204784578687	0.7988506229329093	1.9539725107177892	0.2233263602313631	0.454213619251645	0.5282383576783212	0.22592810722700468	0.3383906246812306	0.3116810380682243	0.21501980012758842	0.29703583913186193	0.43525257312863663	0.3584852014166924	0.42658117752368285	0.6074777798768938	0.36949646524183444	0.26463758536392235	0.813764488572586	0.3425832543737126	0.18763185170554328	0.6075998319102722	0.29787743792039495	0.1704076763678545	0.5201582630664514	0.3244383514904436	0.14106606350817263	0.4914171715091543	0.33957463251311354	0.10058544958729443	0.5292419286025443	0.08189017935067358	0.4665935969159999	0.6114573387846373	0.029889720142192162	0.29000362578054123	0.8168948392619333	0.05364111652410017	0.19259422810695634	0.6188877325483119	0.08656843154754185	0.22163183325514396	0.5318679138544815	0.060564838774321436	0.16403910942211475	0.5201079770877953	0.058618663304140284	0.13516591332758882	0.53999096906018
30	0.8823529411764706	0.32011216531653064	0.49423474633350384	1.0667222567079855	0.3111398676696014	0.6012717568646946	1.4843214055480871	0.31335528864307527	0.7459978796836966	1.9127992774433926	0.282950132816526	0.5529724271299394	1.9505147289198619	0.34032496889769814	0.5914924291811698	1.9489478819573538	0.29434430704992876	0.8425823369658056	1.9856537656260516	0.1504297698602878	0.48645983310509067	1.0708751822334026	0.1421100613842799	0.6420918219830306	1.4838548218213083	0.12591855152475961	0.7384362276723875	1.896011681910793	0.12624847755252108	0.5545749161563766	1.9418448286236174	0.07755750888256661	0.6134112004023046	1.9485907639506974	0.14987264635211495	0.7994649517820249	1.9539229945888903	0.22328539327204866	0.4544509745112432	0.5282403754090641	0.22613298124987755	0.3385004780478903	0.3133954206438607	0.21500020458261587	0.29705653383431585	0.4350881546004403	0.35869135708586175	0.427051966405133	0.6072084507409421	0.3687489498642161	0.2636564276117972	0.8194910479957183	0.34202157786181164	0.18726900839536656	0.612686381351119	0.299161027736082	0.17112206927167983	0.523993839325808	0.32732223185785053	0.13763781528823427	0.4981650018109656	0.3433418928289642	0.09936450371429546	0.5287040405051104	0.08174788437566106	0.46658558351730467	0.6112864939279476	0.029894202334564454	0.29164795826816203	0.8193702547487901	0.05334530587431395	0.19443439366405119	0.6232014949139978	0.08473741410170976	0.23210283134616777	0.5352174499612304	0.06019753193456986	0.16223481372115484	0.525357310572014	0.05760672263631143	0.13585411351831758	0.5423641385993491
31	0.9117647058823528	0.31990718015834896	0.4936735290718131	1.0680934895888432	0.3106110971701169	0.6016962437415125	1.484388435930597	0.31358186677572375	0.7477728985723632	1.9209395336369708	0.2820476307099341	0.5469919222647825	1.9478218795793962	0.34044263724194945	0.591453260739347	1.949038505521369	0.29436154336865644	0.8424605181834313	1.9820970133632123	0.150027913021571	0.4866854251105768	1.0712549642451255	0.14202541081763742	0.6418789713397209	1.483854567780375	0.1259024709164748	0.7384356198282827	1.8959301332388097	0.12616343971343813	0.5540556970231798	1.9416425263737334	0.0776417220361507	0.613293331845971	1.9488748030677812	0.14988045693469523	0.7988063312817986	1.9538932501008754	0.22309163719194045	0.4540855875470673	0.528236790712966	0.22630413812634925	0.33822314926658814	0.3146172210942575	0.21514310837923384	0.29738126433279766	0.43506730583188313	0.35842338943426755	0.42286147997977863	0.6070150215618711	0.36914723230280794	0.2635893017716478	0.822078171439379	0.3426767451028617	0.18931242125394104	0.6138478647831241	0.3030336906313584	0.1779245562711942	0.5256170519873888	0.3344863824322033	0.14372071356966548	0.5000292934709742	0.34871281279635546	0.09844864743383488	0.5258466906134633	0.08288560631803246	0.466656531679997	0.6114575580747348	0.03097478843276491	0.29593600689426297	0.8239059731851888	0.053516903098313404	0.1932238088407825	0.6254874424776042	0.08364986322493148	0.23214589336819208	0.5335847809332606	0.05690350567771502	0.1637654475839762	0.5251718219697352	0.05671473074231041	0.14100947952796056	0.542786000100706
32	0.9411764705882352	0.31975289409886665	0.4999522454782659	1.0729955813623606	0.3103274360957049	0.6018735779537331	1.4843911707642734	0.3136856227167848	0.7486129994387052	1.9236056863395756	0.28200814025336607	0.5478893204606817	1.9517142662845743	0.34029965246574	0.5915078657967537	1.9491470595731246	0.29454205481582735	0.8424863542224466	1.982356935118734	0.14957994672862657	0.4870025446402598	1.0728789024713743	0.1419461366963605	0.641598857694601	1.4838006696048844	0.125875030914531	0.738441728845841	1.8958747309017672	0.12599571278662014	0.5532408837208169	1.9412214482718544	0.07766088059924085	0.6132804763550719	1.949008472866809	0.14983434603574536	0.7981436599532407	1.9538227297683595	0.22303336822890477	0.45405308660761756	0.5283627667961163	0.22634126728099252	0.3382778705063792	0.31433852306743953	0.21544899248522856	0.2973576492851733	0.4351300539831301	0.359243758210001	0.41656598475517764	0.6073567944350676	0.3685856221239058	0.268543796139783	0.8228192388504441	0.3429270516529721	0.18910377753094493	0.6155926830692303	0.30622659969436333	0.1896021139307028	0.5263254107103593	0.3362502556491484	0.15621120324337584	0.5034668480642099	0.35305179148896887	0.09711416749959781	0.5266043841260442	0.08363650251169329	0.46696503216321306	0.6113758114140065	0.03340666409245535	0.2990425970746976	0.8285960544449366	0.055318471304087596	0.18988576570827126	0.6295027135164989	0.08635830408986614	0.228219257444702	0.5363514889098914	0.05502074933528471	0.16430388070147756	0.5249024681885012	0.05813456445831905	0.1367360122350746	0.5466336716965365
33	0.9705882352941176	0.32072675444715587	0.5079592127507565	1.0742984778839744	0.3103877937501582	0.6018199051770845	1.4844398071852805	0.31361767270530344	0.7486098672753365	1.923226836756669	0.28204774605056443	0.5510191072594347	1.9533044958763015	0.34006212233013466	0.5914857084442542	1.9491268478793273	0.2944945095635222	0.8424726536307101	1.9829180684499488	0.14954671600202546	0.4870448603308568	1.0726718174335186	0.14195308354377634	0.6416669528506956	1.4837333683390435	0.12589439005075523	0.738608185367735	1.8960085361008392	0.12685654988447773	0.5572388370381782	1.9428342931843505	0.07762287149761064	0.6134261893845061	1.9489233254268288	0.149532673499289	0.7982198125937334	1.954012754997016	0.22300670415277773	0.4541675645847638	0.5281716489587058	0.22626168789142453	0.3385210820372514	0.3147188322208463	0.21521281860625074	0.29685732945178933	0.4352754797447109	0.3613591311085721	0.41378100877734353	0.6077385854333391	0.36645351221730393	0.2751069918630844	0.8241827544235254	0.3431369242084054	0.18850337860395966	0.6200794156445005	0.31112550885652424	0.19413849485170068	0.5256781787617796	0.33586599588460486	0.15998576464175485	0.5074249727118881	0.3590970419289059	0.09529782570674808	0.5290818361093251	0.08356426735328129	0.46763498863913655	0.6111778798487612	0.035856369755826525	0.29811164066428186	0.8306712438130501	0.05577255306384988	0.19073456443810008	0.634879696287365	0.08999761815228115	0.23517985266370375	0.5426166614861273	0.05503810744157605	0.16407363005297917	0.5242542420642102	0.06087657029503281	0.12787727516563574	0.5491762317841138
34	1.0	0.3226786041517872	0.5069734647011341	1.07115534501859	0.3102955974133811	0.6017256480279077	1.4844603734144473	0.3135890350630775	0.7484254434529422	1.9237149689929782	0.2820960286058788	0.5514665450037992	1.949275130898444	0.3414786233207007	0.5915441709051648	1.9490924795235913	0.29446919559833756	0.8423727923601992	1.9828349925862345	0.14962965789914667	0.4862178739290553	1.068959110459864	0.14204987266046146	0.6414654942890596	1.4835653660469357	0.12591660283334155	0.7387338850416427	1.896141984197953	0.12852043070789185	0.5655935896563729	1.9465407191677735	0.07760463493064114	0.613497783562821	1.9488965193611378	0.14912835048603906	0.7985375209597386	1.954190885000512	0.2230664737267663	0.4540326415197581	0.5278847050336909	0.22710453561865251	0.3418460451060493	0.31643895463437854	0.21487395118686875	0.29685867416080947	0.43461299002360787	0.3624536916920368	0.41452666426396645	0.6078667111932261	0.36478408007299734	0.27797744135989655	0.8272507398311408	0.34221365276267995	0.19166447527893962	0.6253532023034493	0.3179673144852486	0.18902155175453073	0.5248182573689717	0.3371942396404849	0.15313266323764035	0.5108553587148872	0.362001307634345	0.08831756390795437	0.5340233234935934	0.08348184877692069	0.4677489370980015	0.6111109921694068	0.03628781103937537	0.30136545330510095	0.8319248807076619	0.05331489397993767	0.1986025666426527	0.6438012007749722	0.08940268703203072	0.24256358870334083	0.5460743317891983	0.055192796239772135	0.16428867406751974	0.5261839256890446	0.062374493525066535	0.12344295722995069	0.5559366516039119
